<svg width="23" height="19" viewBox="0 0 23 19" fill="none" xmlns="http://www.w3.org/2000/svg">
<rect x="1" y="1" width="15" height="17" rx="2" stroke="#CCD2E3" stroke-width="2"/>
<path d="M12.7394 15.9686L13.6138 13.7219L14.8946 14.8879L12.7394 15.9686Z" fill="#51CBFF"/>
<rect x="14.9883" y="14.6125" width="1.5" height="10.5684" transform="rotate(-137.684 14.9883 14.6125)" fill="#CCD2E3" stroke="#CCD2E3" stroke-width="0.3"/>
<path d="M6.392 8.968C6.59467 8.968 6.77067 8.94267 6.92 8.892C7.072 8.84133 7.196 8.772 7.292 8.684C7.39067 8.59333 7.464 8.48667 7.512 8.364C7.56 8.24133 7.584 8.10667 7.584 7.96C7.584 7.66667 7.48667 7.44133 7.292 7.284C7.1 7.12667 6.80533 7.048 6.408 7.048H5.72V8.968H6.392ZM9.16 12H8.188C8.004 12 7.87067 11.928 7.788 11.784L6.572 9.932C6.52667 9.86267 6.476 9.81333 6.42 9.784C6.36667 9.75467 6.28667 9.74 6.18 9.74H5.72V12H4.644V6.216H6.408C6.8 6.216 7.136 6.25733 7.416 6.34C7.69867 6.42 7.92933 6.53333 8.108 6.68C8.28933 6.82667 8.42267 7.00267 8.508 7.208C8.59333 7.41067 8.636 7.63467 8.636 7.88C8.636 8.07467 8.60667 8.25867 8.548 8.432C8.492 8.60533 8.40933 8.76267 8.3 8.904C8.19333 9.04533 8.06 9.16933 7.9 9.276C7.74267 9.38267 7.56267 9.46667 7.36 9.528C7.42933 9.568 7.49333 9.616 7.552 9.672C7.61067 9.72533 7.664 9.78933 7.712 9.864L9.16 12ZM10.5619 10.936C10.6739 11.072 10.7953 11.168 10.9259 11.224C11.0593 11.28 11.2033 11.308 11.3579 11.308C11.5073 11.308 11.6419 11.28 11.7619 11.224C11.8819 11.168 11.9833 11.0827 12.0659 10.968C12.1513 10.8533 12.2166 10.7093 12.2619 10.536C12.3073 10.36 12.3299 10.1533 12.3299 9.916C12.3299 9.676 12.3099 9.47333 12.2699 9.308C12.2326 9.14 12.1779 9.004 12.1059 8.9C12.0339 8.796 11.9459 8.72 11.8419 8.672C11.7406 8.624 11.6246 8.6 11.4939 8.6C11.2886 8.6 11.1139 8.644 10.9699 8.732C10.8259 8.81733 10.6899 8.93867 10.5619 9.096V10.936ZM10.5099 8.456C10.6779 8.26667 10.8686 8.11333 11.0819 7.996C11.2953 7.87867 11.5459 7.82 11.8339 7.82C12.0579 7.82 12.2619 7.86667 12.4459 7.96C12.6326 8.05333 12.7926 8.18933 12.9259 8.368C13.0619 8.544 13.1659 8.76267 13.2379 9.024C13.3126 9.28267 13.3499 9.58 13.3499 9.916C13.3499 10.2227 13.3086 10.5067 13.2259 10.768C13.1433 11.0293 13.0246 11.256 12.8699 11.448C12.7179 11.64 12.5326 11.7907 12.3139 11.9C12.0979 12.0067 11.8553 12.06 11.5859 12.06C11.3566 12.06 11.1606 12.0253 10.9979 11.956C10.8353 11.884 10.6899 11.7853 10.5619 11.66V13.34H9.57394V7.896H10.1779C10.3059 7.896 10.3899 7.956 10.4299 8.076L10.5099 8.456Z" fill="#51CBFF"/>
</svg>
